# xmcd CD database file
#
# Track frame offsets:
#	150
#	19109
#	37483
#	55085
#	67576
#	90017
#	100171
#	122587
#	134778
#	154237
#	171288
#	184732
#	196142
#	206296
#	221244
#	231096
#	245558
#
# Disc length: 3466 seconds
#
# Revision: 0
# Processed by: cddbd v1.5.2PL0 Copyright (c) Steve Scherf et al.
# Submitted via: CDex 1.51
#
DISCID=eb0d8811
DTITLE=Soundtrack - Underbelly: Razor
DYEAR=2011
DGENRE=Blues
TTITLE0=Another Day - Angus and Julia Stone
TTITLE1=Majesty - The Panics
TTITLE2=Gold Canary - Cloud Control
TTITLE3=Big Bad Handsome Man - Imelda May
TTITLE4=Catch A Fire - Mojo Juju
TTITLE5=That's Where I'm Going - Eilen Jewell
TTITLE6=Broken Bones - Blackchords
TTITLE7=Hope You Find Your Way To Heaven - The Beasts Of Bourbon
TTITLE8=The Milkman - The Crooked Fiddle Band
TTITLE9=B.O.O.G.A.L.O.O - Big Boss Man
TTITLE10=Johnny Got A Boom Boom - Imelda May
TTITLE11=Warning Signs - Eilen Jewell
TTITLE12=John The Revelator - Possum Kings
TTITLE13=Summer Rains - The Ditty Bops
TTITLE14=Do The Stomp - The Snowdroppers
TTITLE15=Made Of Stone - Matt Corby
TTITLE16=Death By Diamonds and Pearls - Band Of Skulls
EXTD=YEAR: 2011
EXTT0=
EXTT1=
EXTT2=
EXTT3=
EXTT4=
EXTT5=
EXTT6=
EXTT7=
EXTT8=
EXTT9=
EXTT10=
EXTT11=
EXTT12=
EXTT13=
EXTT14=
EXTT15=
EXTT16=
PLAYORDER=
